<?xml version="1.0" standalone="no"?>
<!DOCTYPE svg PUBLIC "-//W3C//DTD SVG 20010904//EN"
 "http://www.w3.org/TR/2001/REC-SVG-20010904/DTD/svg10.dtd">
<svg version="1.0" xmlns="http://www.w3.org/2000/svg"
 width="270.000000pt" height="270.000000pt" viewBox="0 0 270.000000 270.000000"
 preserveAspectRatio="xMidYMid meet">
<metadata>
Created by potrace 1.11, written by Peter Selinger 2001-2013
</metadata>
<g transform="translate(0.000000,270.000000) scale(0.100000,-0.100000)"
fill="#000000" stroke="none">
<path d="M2467 2694 c-3 -3 -79 -12 -157 -19 -449 -41 -848 -226 -1120 -519
-114 -123 -128 -134 -182 -145 -177 -38 -297 -109 -457 -270 -105 -105 -110
-111 -192 -221 -122 -164 -219 -329 -219 -373 0 -28 18 -53 45 -61 21 -6 42 6
201 112 113 75 260 128 400 145 39 5 42 3 59 -32 69 -145 322 -398 468 -467
32 -15 37 -22 33 -44 -3 -14 -8 -41 -11 -60 -26 -154 -71 -261 -166 -392 -88
-123 -104 -174 -61 -197 9 -5 29 -7 44 -5 64 7 277 137 438 268 220 178 397
414 415 555 10 76 23 97 108 173 111 99 171 165 244 267 109 150 199 352 253
561 24 93 24 95 35 160 4 25 9 54 11 65 8 39 13 71 19 126 3 31 8 67 11 80 3
13 8 85 10 159 l6 135 -116 1 c-64 0 -117 0 -119 -2z"/>
<path d="M580 943 c-24 -8 -60 -25 -80 -38 -138 -87 -323 -368 -430 -655 -24
-63 -50 -122 -57 -131 -9 -11 -13 -35 -11 -65 3 -49 3 -49 40 -52 25 -2 60 7
105 27 37 16 114 48 171 70 296 118 527 283 598 427 57 116 31 247 -67 339
-84 79 -182 107 -269 78z"/>
</g>
</svg>
